<svg xmlns="http://www.w3.org/2000/svg" width="48" height="48" fill="#FFAAA5" viewBox="0 0 24 24">
  <path d="M19.43 12.98c.04-.32.07-.65.07-.98s-.03-.66-.07-.98l2.11-1.65a.5.5 0 0 0 .12-.65l-2-3.46a.5.5 0 0 0-.61-.22l-2.49 1a6.89 6.89 0 0 0-1.73-1l-.38-2.65A.5.5 0 0 0 14 2h-4a.5.5 0 0 0-.5.42l-.38 2.65a6.89 6.89 0 0 0-1.73 1l-2.49-1a.5.5 0 0 0-.61.22l-2 3.46a.5.5 0 0 0 .12.65L4.57 11c-.04.32-.07.65-.07.98s.03.66.07.98L2.46 14.61a.5.5 0 0 0-.12.65l2 3.46a.5.5 0 0 0 .61.22l2.49-1a6.89 6.89 0 0 0 1.73 1l.38 2.65A.5.5 0 0 0 10 22h4a.5.5 0 0 0 .5-.42l.38-2.65a6.89 6.89 0 0 0 1.73-1l2.49 1a.5.5 0 0 0 .61-.22l2-3.46a.5.5 0 0 0-.12-.65zM12 15.5a3.5 3.5 0 1 1 0-7 3.5 3.5 0 0 1 0 7z"></path>
</svg>
