<svg xmlns="http://www.w3.org/2000/svg" width="48" height="48" fill="#FFAAA5" viewBox="0 0 24 24">
  <path d="M12 2C6.48 2 2 6.48 2 12s4.48 10 10 10 10-4.48 10-10S17.52 2 12 2zm5.93 6h-3.17a15.42 15.42 0 0 0-2.11-4.53A8.05 8.05 0 0 1 17.93 8zM12 4c.83 0 2.5 1.79 3.38 4H8.62C9.5 5.79 11.17 4 12 4zM6.07 8h3.17c-.34 1.01-.6 2.09-.75 3.2a17.72 17.72 0 0 0 0 1.6c.15 1.11.41 2.19.75 3.2H6.07a8 8 0 0 1 0-8zm5.93 12c-.83 0-2.5-1.79-3.38-4h6.76c-.88 2.21-2.55 4-3.38 4zm5.93-4h-3.17c.34-1.01.6-2.09.75-3.2a17.72 17.72 0 0 0 0-1.6c-.15-1.11-.41-2.19-.75-3.2h3.17a8 8 0 0 1 0 8z"></path>
</svg>
